<svg fill="#000000" xmlns="http://www.w3.org/2000/svg" width="24px" height="24px" viewBox="0 0 24 24">
<path stroke="#ffffff" d="M23,10.5V20c0,2.2-1.8,4-4,4h-7.3c-1.08,0-2.1-0.43-2.85-1.189L3,15.83c0,0,1.26-1.23,1.3-1.25
	c0.22-0.189,0.49-0.29,0.79-0.29c0.22,0,0.42,0.06,0.6,0.16C5.73,14.46,8,15.91,8,15.91V9c0-0.83,0.67-1.5,1.5-1.5S11,8.17,11,9
	l0.375,2l0,0L12,6.5C12,5.67,12.67,5,13.5,5S15,5.67,15,6.5l0.5,4.5l0,0L16,7.5C16,6.67,16.67,6,17.5,6S19,6.67,19,7.5l0.438,3.5
	l0,0l0,0c0-0.83,1.232-2,2.062-2S23,9.67,23,10.5z"/>
</svg>
