<svg version="1.1" id="Layer_1" xmlns="http://www.w3.org/2000/svg" width="24px" height="24px" viewBox="0 0 24 24">
	<path d="M20.289,7.627l-3.942-3.941c-0.92-0.92-2.523-0.918-3.443,0L2.028,14.562c-0.95,0.95-0.95,2.494,0,3.442l3.944,3.943
		c0.459,0.459,1.07,0.713,1.719,0.713c0.65,0,1.261-0.254,1.721-0.713l10.877-10.877C21.24,10.123,21.24,8.578,20.289,7.627z
			M8.833,21.367c-0.609,0.61-1.671,0.61-2.281,0l-3.942-3.942c-0.629-0.63-0.629-1.652,0-2.28l7.314-7.312l6.225,6.223L8.833,21.367
		z"/>
	<path fill="#FFFFFF" d="M8.774,21.43c-0.609,0.609-1.671,0.609-2.281,0l-3.942-3.943c-0.629-0.629-0.629-1.652,0-2.279l7.373-7.375
		l6.225,6.223L8.774,21.43z"/>
</svg>
